<mxfile host="app.diagrams.net" modified="2024-05-11T03:22:37.319Z" agent="Mozilla/5.0 (Windows NT 10.0; Win64; x64) AppleWebKit/537.36 (KHTML, like Gecko) Chrome/124.0.0.0 Safari/537.36" version="24.4.0" etag="pNSlLXcyUnGIBHwIs2ML" type="github">
  <diagram name="Page-1" id="zEZl33TObgl7Pywwpb0o">
    <mxGraphModel>
      <root>
        <mxCell id="0" />
        <mxCell id="1" parent="0" />
      </root>
    </mxGraphModel>
  </diagram>
</mxfile>
